<svg id="Layer_1" data-name="Layer 1" xmlns="http://www.w3.org/2000/svg" viewBox="0 0 1000 216.02"><defs><style>.cls-1{fill:#202020;}</style></defs><title>smooets logotype</title><path class="cls-1" d="M95.48,118.6l-50.92.06h0c-4.89,0-8.86-4.92-8.86-10.92s4-10.89,8.86-10.92v-.05h71.21V73L42.42,73c-17.08,1.2-30.63,16.32-30.63,34.74,0,19.19,14.69,34.8,32.76,34.83l50.92-.06c4.83,0,8.91,5.35,8.91,11.68s-4.08,11.68-8.91,11.68l-72.64,0v23.81l72.64.07c18.09,0,32.81-16,32.81-35.59S113.57,118.6,95.48,118.6Z"/><path class="cls-1" d="M956.05,118.6l-50.92.06h0c-4.89,0-8.86-4.92-8.86-10.92s4-10.89,8.86-10.92v-.05h71.21V73L903,73c-17.08,1.2-30.63,16.32-30.63,34.74,0,19.19,14.69,34.8,32.76,34.83l50.92-.06c4.83,0,8.91,5.35,8.91,11.68s-4.08,11.68-8.91,11.68l-72.64,0v23.81l72.64.07c18.09,0,32.81-16,32.81-35.59S974.15,118.6,956.05,118.6Z"/><path class="cls-1" d="M356.58,108c-7.05-21.87-30.34-35.62-57.12-35.62-18.22,0-34.86,7.37-45.86,19.07-10.92-12-28.29-19.07-47.46-19.07-26.82,0-50.22,16-57.25,38.2a30.58,30.58,0,0,0-1.34,9.23v70h23.81V125.38h.1c0-16.07,15.56-29.14,34.69-29.14s34.68,13.07,34.69,29.14l0,64.35h23.81V125.38h.1c0-16.07,15.56-29.14,34.69-29.14s34.68,13.07,34.69,29.14l0,64.35H358l0-72.48A30.33,30.33,0,0,0,356.58,108Z"/><path class="cls-1" d="M437.54,72.53a58.68,58.68,0,0,0-15.49,2.07l6.31,23.06a34.67,34.67,0,1,1-25.48,33.43,34.34,34.34,0,0,1,10.91-25.24l.16-.15-16.3-17.49-.24.23a58.57,58.57,0,1,0,40.13-15.91Z"/><path class="cls-1" d="M614,88.44l-.24-.23-16.3,17.49.16.15a34.34,34.34,0,0,1,10.91,25.24,34.61,34.61,0,1,1-25.48-33.43l6.31-23.06A58.6,58.6,0,1,0,614,88.44Z"/><path class="cls-1" d="M711.41,166.62a35.84,35.84,0,0,1-15.6-3.55s66-65,65.58-65.62a60,60,0,1,0,1.35,64.1l-20.46-12.37A35.82,35.82,0,0,1,711.41,166.62Zm-36.05-36.05A36,36,0,0,1,727,98.08l-48.09,48.09A35.84,35.84,0,0,1,675.36,130.57Z"/><path class="cls-1" d="M804.87,137.6s-.05-7.76-.08-12.83v-4.31h46V96.65H804.76V26.44H781V137.67h0c0,14.82,8,29.05,22,39.05,13,9.3,30,14.42,47.93,14.43V167.24C825.93,167.24,804.87,153.67,804.87,137.6Z"/></svg>