<svg id="Layer_1" data-name="Layer 1" xmlns="http://www.w3.org/2000/svg" viewBox="0 0 207.5 198"><defs><style>.cls-1{fill:#fff;}</style></defs><title>works</title><path class="cls-1" d="M186.75,44.5H146.5V10.25A9.25,9.25,0,0,0,137.25,1H14.75A9.25,9.25,0,0,0,5.5,10.25v122.5A9.25,9.25,0,0,0,14.75,142H49v40.25A15.27,15.27,0,0,0,64.25,197.5h122.5A15.27,15.27,0,0,0,202,182.25V59.75A15.27,15.27,0,0,0,186.75,44.5ZM190,182.25a3.25,3.25,0,0,1-3.25,3.25H64.25A3.25,3.25,0,0,1,61,182.25V142h76.25a9.25,9.25,0,0,0,9.25-9.25V56.5h40.25A3.25,3.25,0,0,1,190,59.75Z"/></svg>